# xmcd
#
# Track frame offsets:
# 150
# 12194
# 20976
# 34961
# 56640
# 73654
# 90645
# 117048
# 131772
# 149431
# 168763
# 185591
# 201161
#
# Disc length: 3031 seconds
#
#
# Revision: 4
# Processed by: cddbd v1.5.1PL0 Copyright (c) Steve Scherf et al.
# Submitted via: FreeRIP 2.942 
#
DISCID=bc0bd50d
DTITLE=Princess - A hegedû hercegnõi
DYEAR=2002
DGENRE=Instrumental
TTITLE0=Johannes Brahms: Magyar táncok No. 5.
TTITLE1=Vittorio Monti: Csárdás (intro)
TTITLE2=Vittorio Monti: Csárdás
TTITLE3=Molnár László, Holló József: Talány
TTITLE4=Wolfgang Amadeus Mozart: Török induló
TTITLE5=Holló József: Ír partokon
TTITLE6=Liszt Ferenc: Magyar rapszódia No. 2.
TTITLE7=Johannes Brahms: Magyar táncok No. 1.
TTITLE8=Holló József: Titkok
TTITLE9=Wolfgang Amadeus Mozart: Egy kis éji zene
TTITLE10=Holló József: Huza-vona
TTITLE11=Holló József: A szív dolgai
TTITLE12=Johannes Brahms, Holló József, Molnár László: Magyar táncok No. 5. Princess Clubmix
EXTD=
EXTT0=
EXTT1=
EXTT2=
EXTT3=
EXTT4=
EXTT5=
EXTT6=
EXTT7=
EXTT8=
EXTT9=
EXTT10=
EXTT11=
EXTT12=
PLAYORDER=
